
<svg width="71" height="94" viewBox="0 0 71 94" fill="none" xmlns="http://www.w3.org/2000/svg">
<path d="M70.7038 15.5401C69.8406 9.49771 67.5838 5.14011 64.0374 2.68571C60.491 0.231309 55.5822 -0.434291 49.5606 0.855309L47.023 1.40651C43.2569 2.39816 39.392 2.96674 35.4998 3.10171C31.6081 2.97005 27.7431 2.40496 23.9766 1.41691L21.439 0.865709C15.4278 -0.434291 10.5398 0.200108 6.97261 2.68571C3.40541 5.17131 1.17981 9.48731 0.29581 15.5401C-0.93139 24.1097 6.53581 41.9769 7.88781 45.2217C6.21341 63.4737 6.89981 77.3473 9.96781 86.4577C10.0718 86.7697 12.4638 93.8105 16.7486 93.8105H17.1334C20.8774 93.4361 23.103 88.2777 24.5694 76.5361C26.2854 62.7769 28.459 55.7361 35.5206 55.7361C42.5822 55.7361 44.7558 62.7769 46.4718 76.5361C47.9174 88.2465 50.143 93.4049 53.887 93.8001H54.2718C58.5462 93.8001 60.9486 86.7593 61.0526 86.4473C64.0894 77.3369 64.7862 63.4633 63.1326 45.2113C64.495 41.9769 71.8998 24.1201 70.7038 15.5401ZM59.7734 42.8401L57.3398 41.3113L56.2998 42.9025L58.931 44.5457V45.0657C60.595 62.7457 59.971 76.6297 57.111 85.1681C56.3726 87.3937 54.7918 89.6505 54.1782 89.7857C54.1782 89.7857 51.8902 88.7457 50.299 75.9953C48.947 65.2001 47.2622 51.7737 35.427 51.6801H35.3022C23.4566 51.7737 21.7822 65.2001 20.4302 75.9953C18.9742 88.7353 16.7278 89.7753 16.7798 89.7857C16.0934 89.6609 14.5126 87.4041 13.7742 85.1785C10.9246 76.6297 10.3006 62.7665 11.9542 45.0761V44.5561L11.7462 44.0777C9.35421 38.5865 3.25981 22.8409 4.29981 16.1017C5.00701 11.1305 6.63981 7.78171 9.29181 5.97211C11.9438 4.16251 15.7398 3.72571 20.607 4.77611L23.1134 5.32731C26.6268 6.2187 30.2109 6.80329 33.8254 7.07451L37.2158 14.3545L38.911 13.5641L35.9054 7.11611C39.9513 6.94811 43.9677 6.34844 47.8862 5.32731L50.3926 4.77611C55.2806 3.73611 59.0974 4.13131 61.739 5.97211C64.3806 7.81291 66.0238 11.1721 66.731 16.1017C67.6254 22.3729 62.4462 36.4545 59.7734 42.8401Z" fill="white"/>
<path d="M52.5567 22.1545L53.2535 22.4561L51.3711 29.1849L53.1703 29.6841L55.4895 21.3953L53.3159 20.4385L52.5567 22.1545Z" fill="white"/>
<path d="M41.3145 15.1642L40.5605 16.8777L49.1279 20.6474L49.8818 18.9339L41.3145 15.1642Z" fill="white"/>
<path d="M52.1607 33.2928L50.3615 32.7832L48.8535 38.1808L53.2215 40.916L54.2199 39.3248L51.0271 37.3384L52.1607 33.2928Z" fill="white"/>
</svg>