
<svg width="104" height="104" viewBox="0 0 104 104" fill="none" xmlns="http://www.w3.org/2000/svg">
<path d="M75.2821 5.98396C72.3803 3.24929 68.6574 2.38641 64.7988 3.55499H64.7986L58.6969 5.40444C54.2534 6.75238 49.7471 6.75258 45.3033 5.40444L39.2016 3.55499C35.3431 2.38621 31.6202 3.24929 28.7183 5.98396C24.3818 10.0706 22.706 17.4217 24.4493 24.7119L26.9883 35.3284C27.5049 37.4882 29.4165 38.9966 31.6372 38.9966H35.3542V44.1873C35.3542 46.5509 37.2772 48.4736 39.6408 48.4736H40.8004V58.7471L39.293 59.1802C38.7539 59.3353 38.4423 59.8978 38.5973 60.4371C38.7253 60.8823 39.1315 61.1724 39.5731 61.1724C39.666 61.1724 39.7604 61.1596 39.8541 61.1326L40.8004 60.8608V65.1772L39.293 65.6105C38.7539 65.7655 38.4423 66.3281 38.5973 66.8672C38.7253 67.3125 39.1315 67.6025 39.5731 67.6025C39.666 67.6025 39.7604 67.5897 39.8541 67.5629L40.8004 67.2909V71.6075L39.293 72.0406C38.7539 72.1956 38.4423 72.758 38.5973 73.2973C38.7253 73.7428 39.1315 74.0329 39.5731 74.0329C39.666 74.0329 39.7604 74.0199 39.8541 73.993L40.8004 73.7211V78.0377L39.293 78.4707C38.7539 78.6259 38.4423 79.1884 38.5973 79.7277C38.7253 80.1729 39.1315 80.463 39.5731 80.463C39.666 80.463 39.7604 80.4502 39.8541 80.4232L40.8004 80.1514V84.4678L39.293 84.9011C38.7539 85.0558 38.4423 85.6185 38.5973 86.1576C38.7253 86.6031 39.1315 86.8931 39.5731 86.8931C39.666 86.8931 39.7604 86.8803 39.8541 86.8535L40.8004 86.5813V89.5776C40.8004 91.1795 41.4141 92.6954 42.5288 93.8463L47.6055 99.0875C48.77 100.29 50.3331 100.952 52.0066 100.954C52.0089 100.954 52.0107 100.954 52.0125 100.954C53.6838 100.954 55.2456 100.294 56.4108 99.0956L61.5123 93.8489C62.6321 92.6972 63.2488 91.1784 63.2488 89.5719V80.1309L64.7562 79.6978C65.2953 79.5426 65.6069 78.9802 65.4519 78.4409C65.2971 77.902 64.7346 77.591 64.1951 77.7454L63.2488 78.0172V73.7007L64.7562 73.2675C65.2953 73.1125 65.6069 72.5498 65.4519 72.0107C65.2971 71.4719 64.7346 71.1603 64.1951 71.315L63.2488 71.587V67.2706L64.7562 66.8374C65.2953 66.6824 65.6069 66.1199 65.4519 65.5806C65.2971 65.0417 64.7346 64.7303 64.1951 64.8849L63.2488 65.1569V60.8403L64.7562 60.4072C65.2953 60.252 65.6069 59.6896 65.4519 59.1503C65.2971 58.6114 64.7346 58.3004 64.1951 58.4548L63.2488 58.7266V54.4102L64.7562 53.9769C65.2953 53.8221 65.6069 53.2595 65.4519 52.7204C65.2971 52.1813 64.7346 51.8703 64.1951 52.0245L63.2488 52.2967V48.4739H64.3601C66.7236 48.4739 68.6466 46.5511 68.6466 44.1875V38.9968H72.3636C74.5844 38.9968 76.496 37.4884 77.0125 35.3286L79.5516 24.7121C81.2944 17.4217 79.6186 10.0706 75.2821 5.98396ZM61.2173 89.5709C61.2173 90.6454 60.8048 91.6615 60.0556 92.4317L54.9542 97.6786C54.1748 98.4802 53.1301 98.9216 52.0123 98.9216C52.0109 98.9216 52.0095 98.9216 52.0082 98.9216C50.8886 98.9205 49.8431 98.4771 49.0644 97.673L43.9877 92.4321C43.242 91.6621 42.8315 90.6481 42.8315 89.5766V85.9967L61.2175 80.7134V89.5709H61.2173ZM61.2173 78.5999L42.8313 83.8834V79.5668L61.2173 74.2833V78.5999ZM61.2173 72.17L42.8313 77.4533V73.1369L61.2173 67.8534V72.17ZM61.2173 65.7399L42.8313 71.0234V66.7068L61.2173 61.4235V65.7399ZM61.2173 59.3097L42.8313 64.5932V60.2766L61.2173 54.9933V59.3097ZM61.2173 52.8798L42.8313 58.1631V48.4734H61.2173V52.8798ZM66.615 44.1871C66.615 45.4306 65.6034 46.4422 64.3597 46.4422H62.2327H41.8156H39.6404C38.3968 46.4422 37.3851 45.4306 37.3851 44.1871V38.9964H66.6148V44.1871H66.615ZM77.5754 24.2394L75.0363 34.8559C74.7394 36.0978 73.6402 36.9654 72.3632 36.9654H67.6306H36.3697H31.637C30.36 36.9654 29.2609 36.0978 28.9639 34.8559L26.4249 24.2394C24.8718 17.7459 26.3534 11.0036 30.1112 7.4623C31.3655 6.28032 33.2807 5.07254 35.8698 5.07254C36.7123 5.07254 37.6268 5.20051 38.6126 5.4991L44.7138 7.34835C49.5488 8.81532 54.4516 8.81511 59.2862 7.34835L65.3875 5.4991C69.4027 4.2834 72.2265 5.8956 73.8891 7.4623C77.6469 11.0036 79.1285 17.7457 77.5754 24.2394Z" fill="#ffffff"/>
</svg>
