
<svg width="104" height="104" viewBox="0 0 104 104" fill="none" xmlns="http://www.w3.org/2000/svg">
<path d="M49.3194 60.1703C49.0714 60.1705 48.8293 60.0951 48.6253 59.9541C48.4214 59.8131 48.2653 59.6132 48.1779 59.3812C48.0904 59.1491 48.0759 58.896 48.1361 58.6554C48.1964 58.4149 48.3285 58.1985 48.515 58.035L49.8459 56.8683C50.4498 56.3396 51.2263 56.0501 52.0289 56.0542C52.8315 56.0584 53.6049 56.3561 54.2033 56.891L55.4944 58.0432C55.7267 58.2609 55.8646 58.5608 55.8785 58.8789C55.8925 59.197 55.7815 59.5079 55.5692 59.7451C55.3569 59.9824 55.0601 60.1271 54.7425 60.1484C54.4248 60.1697 54.1115 60.0659 53.8694 59.8591L52.5832 58.7062C52.4289 58.5681 52.2294 58.4913 52.0224 58.4903C51.8154 58.4892 51.6152 58.564 51.4595 58.7005L50.1286 59.8672C49.9052 60.0642 49.6172 60.172 49.3194 60.1703Z" fill="white"/>
<path d="M52 67.9015C51.6768 67.9015 51.3668 67.7731 51.1382 67.5445C50.9097 67.316 50.7812 67.006 50.7812 66.6827V61.4697C50.7812 61.1465 50.9097 60.8365 51.1382 60.6079C51.3668 60.3794 51.6768 60.251 52 60.251C52.3232 60.251 52.6332 60.3794 52.8618 60.6079C53.0903 60.8365 53.2188 61.1465 53.2188 61.4697V66.6827C53.2188 67.006 53.0903 67.316 52.8618 67.5445C52.6332 67.7731 52.3232 67.9015 52 67.9015Z" fill="white"/>
<path d="M98.7922 4.75218C91.7235 -2.71713 69.8884 2.82493 57.7878 8.07287C55.9604 8.86201 53.9909 9.26909 52.0004 9.26909C50.0098 9.26909 48.0403 8.86201 46.2129 8.07287C34.1124 2.82493 12.2789 -2.71713 5.2085 4.75218C-0.0475656 10.3072 -0.392066 20.2758 4.33181 28.5877C4.18475 32.5064 4.721 36.8086 5.22556 38.0127C6.24525 40.4681 11.9084 41.6641 15.394 41.6641C15.7352 41.6641 16.057 41.6527 16.3503 41.6299C17.0269 41.5917 17.6937 41.4509 18.3279 41.2123C20.3592 43.3297 25.8606 44.2251 29.5404 44.2251C30.0409 44.2251 30.5073 44.208 30.9274 44.1763C31.9083 44.1313 32.8744 43.9194 33.7841 43.5499C34.4921 44.5113 35.5441 45.1622 36.7205 45.3666C39.5152 45.8685 42.3498 46.1151 45.1892 46.1036C46.4486 46.1036 47.6884 46.0556 48.8601 45.9589C50.0128 45.8888 51.113 45.4524 52.0004 44.7134C52.8872 45.4533 53.9871 45.8908 55.1399 45.9622C56.3123 46.0589 57.5514 46.106 58.8116 46.106C61.6509 46.1178 64.4855 45.8714 67.2802 45.3699C68.4571 45.1646 69.5092 44.5126 70.2166 43.5499C71.1269 43.9196 72.0935 44.1314 73.075 44.1763C73.4951 44.208 73.9614 44.2251 74.4619 44.2251C78.1434 44.2251 83.6432 43.3313 85.6744 41.2123C86.3087 41.4509 86.9755 41.5917 87.6521 41.6299C87.9454 41.6527 88.2663 41.6641 88.6084 41.6641C92.094 41.6641 97.7571 40.4681 98.7768 38.0127C99.2781 36.8053 99.8144 32.5031 99.6705 28.5877C104.393 20.2758 104.048 10.3072 98.7922 4.75218ZM11.1235 38.7147C8.634 38.1289 7.5875 37.3594 7.47131 37.0791C6.76362 35.3729 6.20625 26.2899 7.63381 23.8419C8.59743 22.1949 10.5255 22.3647 11.3104 22.5142C12.7111 22.8368 13.9964 23.5378 15.0261 24.5407C16.0559 25.5436 16.7904 26.81 17.1498 28.2017C17.2457 28.6144 17.2686 29.0406 17.2172 29.4611C16.8741 32.629 16.9169 35.8269 17.3448 38.9844C16.5486 39.2842 14.1216 39.4216 11.1259 38.7163L11.1235 38.7147ZM25.495 41.4577C21.7226 40.8459 20.1325 39.7904 19.9546 39.3761C19.1347 37.4716 19.2038 27.1626 20.9296 23.8866C21.5796 22.6572 23.5629 22.16 25.872 22.6499C29.0017 23.3137 32.2704 25.7139 32.7417 29.6098C32.7685 29.8576 32.7709 30.1074 32.749 30.3557C32.5259 33.8119 32.5402 37.2794 32.7921 40.7337C32.8067 40.9304 32.8432 41.1148 32.8733 41.3025C32.1071 41.7193 29.3194 42.0792 25.4974 41.4593L25.495 41.4577ZM50.3575 42.908C49.8847 43.3184 49.2773 43.5403 48.6512 43.5312C44.8159 43.8295 40.9583 43.6425 37.1698 42.9746C36.6091 42.8701 36.1041 42.5689 35.7457 42.1252C35.3873 41.6814 35.1991 41.1243 35.2149 40.5542C35.076 38.6854 34.6933 32.1789 35.5895 26.9854C35.7512 25.7164 36.3787 24.5526 37.3501 23.7201C38.3214 22.8876 39.5675 22.4457 40.8464 22.4801C42.8762 22.4591 44.8551 23.1157 46.4698 24.346C48.0845 25.5763 49.2427 27.31 49.7611 29.2726C51.1253 35.0804 50.9661 41.5901 50.3632 42.9096L50.3575 42.908ZM68.772 40.5517C68.7878 41.1218 68.5996 41.6788 68.2412 42.1224C67.8828 42.566 67.3778 42.8671 66.8171 42.9714C63.0285 43.6401 59.1704 43.8271 55.3349 43.5279C54.7087 43.5369 54.1013 43.3147 53.6286 42.9039C53.0266 41.5852 52.8673 35.0755 54.2234 29.2718C54.7325 27.3457 55.8578 25.6389 57.4274 24.4119C58.9971 23.185 60.925 22.5051 62.9171 22.4761C62.9894 22.4761 63.0617 22.4761 63.1341 22.4761C64.4129 22.4416 65.659 22.8835 66.6304 23.7161C67.6018 24.5486 68.2292 25.7123 68.3909 26.9814C69.2993 32.1806 68.9166 38.6854 68.7777 40.5566L68.772 40.5517ZM84.0372 39.372C83.8593 39.7872 82.2701 40.8426 78.4976 41.4544C74.6789 42.0752 71.8887 41.7136 71.1226 41.2984C71.3839 37.652 71.4249 33.9932 71.2452 30.3419C71.2247 30.0984 71.2274 29.8536 71.2534 29.6106C71.7222 25.7106 74.9909 23.3097 78.1239 22.6451C80.4362 22.1576 82.4212 22.6524 83.0663 23.8817C84.7945 27.1642 84.8635 37.4732 84.0429 39.3769L84.0372 39.372ZM96.5254 37.0807C96.4092 37.3611 95.3627 38.1305 92.8691 38.7163C89.871 39.4232 87.4457 39.2851 86.6446 38.9893C87.0724 35.8317 87.1153 32.6339 86.7721 29.466C86.7208 29.0455 86.7436 28.6192 86.8396 28.2066C87.1989 26.8149 87.9335 25.5485 88.9632 24.5456C89.9929 23.5426 91.2782 22.8417 92.679 22.5191C93.4622 22.3704 95.3919 22.199 96.3556 23.8459C97.7921 26.2916 97.2347 35.3769 96.5254 37.0807ZM98.4632 22.6126C97.2517 20.5407 94.9231 19.6063 92.2272 20.1214C89.6305 20.6795 87.3546 22.23 85.8849 24.4423C85.7219 23.8585 85.5031 23.2918 85.2316 22.7499C84.0535 20.5098 81.0659 19.5324 77.625 20.2644C74.6917 20.8719 72.1056 22.5872 70.4051 25.0533C69.8814 23.5721 68.9066 22.2923 67.6178 21.3938C66.3291 20.4953 64.7911 20.0233 63.2202 20.0442C60.7158 20.0048 58.2666 20.7813 56.2425 22.2566C54.2184 23.7319 52.7294 25.8258 52.0004 28.2221C51.2752 25.8241 49.7873 23.7283 47.7626 22.2529C45.7379 20.7775 43.287 20.0032 40.7822 20.0475C39.2113 20.0266 37.6733 20.4986 36.3845 21.3971C35.0957 22.2955 34.121 23.5754 33.5972 25.0566C31.8968 22.5904 29.3107 20.8751 26.3774 20.2677C22.9356 19.5364 19.9489 20.5114 18.7707 22.7531C18.4983 23.2939 18.2785 23.8595 18.1142 24.4423C16.6445 22.23 14.3686 20.6795 11.7719 20.1214C9.07925 19.6087 6.74737 20.5407 5.53512 22.6134C5.27065 23.0897 5.0665 23.5971 4.92737 24.1238C2.46956 17.5864 3.16912 10.4584 6.97975 6.42837C12.2472 0.859496 30.9436 4.10787 45.2436 10.3089C47.3771 11.2302 49.6764 11.7055 52.0004 11.7055C54.3243 11.7055 56.6237 11.2302 58.7571 10.3089C73.0571 4.10787 91.7544 0.860309 97.021 6.42837C100.835 10.4584 101.531 17.5864 99.0734 24.1238C98.9342 23.5967 98.7298 23.089 98.4648 22.6126H98.4632Z" fill="white"/>
<path d="M99.5128 77.3498C98.912 76.3363 98.0506 75.5024 97.0182 74.9348C95.9858 74.3672 94.8201 74.0868 93.6425 74.1226C92.2538 74.1643 90.887 74.4792 89.62 75.0493C88.353 75.6193 87.2108 76.4334 86.2585 77.4449C85.1315 75.3966 82.7696 74.2225 79.7585 74.2225C77.0626 74.2466 74.4429 75.1193 72.2713 76.7169C71.6855 77.155 71.1599 77.6683 70.708 78.2436C69.8738 76.9496 68.7181 75.8942 67.3539 75.1804C65.9898 74.4667 64.4638 74.119 62.9251 74.1713C60.7216 74.2157 58.5649 74.8157 56.6551 75.9158C54.7453 77.0158 53.1442 78.5803 52.0002 80.4642C50.8557 78.5808 49.2543 77.0168 47.3444 75.9172C45.4345 74.8176 43.2779 74.2179 41.0745 74.1738C39.5365 74.1213 38.0112 74.4687 36.6476 75.1821C35.284 75.8954 34.1288 76.9503 33.2948 78.2436C32.8419 77.6672 32.3156 77.1526 31.7292 76.7128C29.5571 75.1149 26.9368 74.2419 24.2403 74.2177C21.2341 74.2177 18.8713 75.3909 17.7403 77.4408C16.7884 76.429 15.6464 75.6146 14.3795 75.0444C13.1126 74.4742 11.7458 74.1593 10.3572 74.1177C9.17883 74.0823 8.01258 74.3635 6.97984 74.932C5.9471 75.5004 5.08566 76.3354 4.48521 77.3498C2.20453 81.2336 3.18034 91.6271 4.0944 93.8306C5.5959 97.43 12.8865 98.2392 15.3223 98.2392C16.2296 98.2535 17.1351 98.1555 18.0182 97.9475C21.5737 100.76 29.377 100.798 29.4696 100.798C30.8003 100.835 32.1295 100.683 33.4175 100.347C34.2633 101.162 35.3309 101.709 36.4863 101.919C39.3488 102.432 42.2517 102.685 45.1598 102.675C46.4809 102.675 47.7598 102.624 48.9607 102.524C50.0283 102.439 51.0651 102.124 52.0002 101.602C52.9351 102.124 53.9715 102.439 55.039 102.525C56.2423 102.625 57.5212 102.676 58.8423 102.676C61.7459 102.686 64.6445 102.434 67.5027 101.922C68.6656 101.712 69.74 101.161 70.5902 100.34C70.8361 100.413 71.0961 100.478 71.3702 100.535C72.4092 100.725 73.4641 100.815 74.5203 100.803C77.0057 100.803 82.9914 100.243 85.9611 97.9427C86.851 98.155 87.7641 98.2549 88.6789 98.24C91.1164 98.24 98.4053 97.4275 99.9052 93.8355C100.82 91.6279 101.796 81.2344 99.5128 77.3498ZM97.6546 92.9003C96.5902 95.4515 85.8815 96.9628 85.3371 94.6959C85.29 94.8723 85.233 95.0459 85.1665 95.2159C84.1508 97.5559 75.7983 98.929 71.8577 98.149C70.7446 97.9215 69.9808 97.5315 69.8346 96.9465V96.9059C69.683 97.5705 69.337 98.175 68.8407 98.6424C68.3444 99.1097 67.7203 99.4188 67.0477 99.5303C63.1521 100.216 59.1856 100.407 55.2421 100.099C54.3727 100.026 52.9427 99.6765 52.5283 98.7665C52.244 98.149 51.7565 98.149 51.4721 98.7665C51.0577 99.6765 49.6277 100.026 48.7583 100.099C44.8149 100.407 40.8483 100.216 36.9527 99.5303C36.2802 99.4188 35.656 99.1097 35.1597 98.6424C34.6634 98.175 34.3175 97.5705 34.1658 96.9059V96.9465C33.4752 99.6197 20.134 98.214 18.834 95.2159C18.7674 95.0459 18.7105 94.8723 18.6633 94.6959C18.119 96.9628 7.41021 95.4515 6.34584 92.9003C5.57396 91.0397 4.86709 81.5172 6.58959 78.584C8.91334 74.6109 16.0146 76.8047 18.0702 82.3947C18.0958 82.4724 18.1467 82.5393 18.2149 82.5846C18.2831 82.6298 18.3645 82.6509 18.446 82.6443C18.5276 82.6378 18.6046 82.604 18.6646 82.5484C18.7247 82.4928 18.7643 82.4186 18.7771 82.3378C18.9551 81.0708 19.3164 79.8364 19.8496 78.6734C21.2552 76.0003 26.6421 75.9759 30.274 78.6734C31.9558 79.9247 32.809 82.1428 33.5321 84.2634C33.5557 84.3376 33.6045 84.4011 33.67 84.443C33.7355 84.485 33.8137 84.5027 33.8909 84.493C33.9681 84.4834 34.0395 84.447 34.0927 84.3902C34.1458 84.3334 34.1775 84.2598 34.1821 84.1822C34.239 83.3859 34.3121 82.614 34.3933 82.1347C35.9046 73.4003 48.9371 75.6997 50.9521 84.3528C51.1227 85.0678 51.269 85.8072 51.399 86.5465C51.4225 86.689 51.4958 86.8186 51.6059 86.912C51.7161 87.0054 51.8558 87.0567 52.0002 87.0567C52.1446 87.0567 52.2844 87.0054 52.3945 86.912C52.5046 86.8186 52.578 86.689 52.6015 86.5465C52.7315 85.8072 52.8777 85.0678 53.0483 84.3528C55.0633 75.6997 68.0958 73.4003 69.6071 82.1347C69.6477 82.3622 69.6802 82.6628 69.7208 82.9959V83.0853C69.7615 83.4265 69.794 83.8003 69.8183 84.1822C69.8229 84.2598 69.8546 84.3334 69.9078 84.3902C69.961 84.447 70.0324 84.4834 70.1096 84.493C70.1868 84.5027 70.2649 84.485 70.3304 84.443C70.396 84.4011 70.4448 84.3376 70.4683 84.2634C70.6552 83.7272 70.8421 83.1828 71.0533 82.6547C71.5622 81.1074 72.487 79.7301 73.7265 78.6734C77.3583 75.9759 82.7452 76.0003 84.1508 78.6734C84.684 79.8364 85.0453 81.0708 85.2233 82.3378C85.2361 82.4186 85.2758 82.4928 85.3358 82.5484C85.3958 82.604 85.4728 82.6378 85.5544 82.6443C85.636 82.6509 85.7174 82.6298 85.7855 82.5846C85.8537 82.5393 85.9047 82.4724 85.9302 82.3947C87.9858 76.8047 95.0871 74.6109 97.4108 78.584C99.1333 81.5139 98.4265 91.0364 97.6546 92.897V92.9003Z" fill="white"/>
</svg>