<svg width="104" height="104" viewBox="0 0 104 104" fill="none" xmlns="http://www.w3.org/2000/svg">
<path fill-rule="evenodd" clip-rule="evenodd" d="M60.2499 76.3401C68.8039 76.3401 75.5989 82.8086 76.3069 90.9914H44.1917C44.8997 82.8086 51.6947 76.3401 60.2499 76.3401ZM56.6777 69.0063L59.6985 73.7655C54.4864 73.9098 49.8089 76.1056 46.458 79.5531L45.1986 73.3755C45.6685 73.2388 46.1486 73.0495 46.6198 72.8012C50.0975 71.0429 53.3941 69.8365 56.6777 69.0063ZM69.2232 57.4902C78.3441 57.4902 87.2876 58.96 96.4486 63.5449L96.4641 63.5511L96.4693 63.5649C97.7377 64.1707 98.3253 64.9758 98.5803 65.9025C98.8352 66.8305 98.6942 67.9015 98.236 68.822C97.783 69.7362 97.0297 70.4761 96.1729 70.8084C95.3238 71.147 94.3609 71.1746 93.1119 70.5137L93.1067 70.5075L93.099 70.4937C84.9009 66.3615 77.4381 64.9432 69.2232 64.9432C61.0045 64.9432 53.5559 66.3615 45.3591 70.4937L45.3384 70.5075L45.3229 70.5137C44.0843 71.1734 43.1187 71.147 42.2697 70.8084C41.4154 70.4749 40.6596 69.7362 40.2014 68.822C39.7484 67.9028 39.6151 66.8305 39.87 65.9025C40.125 64.9758 40.7113 64.1719 41.981 63.5649L41.9862 63.5511L42.0017 63.5449C51.164 58.96 60.1024 57.4902 69.2232 57.4902ZM58.6062 42.1479C60.7353 42.1993 62.1383 43.7883 61.0731 45.5766C56.7657 46.0468 52.4505 46.9473 48.1095 48.4245C46.9563 47.6332 47.0702 46.3089 47.6642 45.3822C48.1095 44.6899 49.044 44.1406 50.7175 43.565C53.8742 42.4803 55.76 42.0764 58.6062 42.1479ZM20.3289 35.4662C21.9869 35.5252 23.8959 36.4532 25.906 38.6528L34.724 48.328C36.7185 50.5226 37.3734 52.4752 37.3125 54.0817C37.2517 55.7019 36.4881 57.0739 35.3103 58.0734C33.915 59.2559 32.6453 59.3726 31.6746 58.3079L15.3692 40.411C14.9045 39.9069 14.7272 39.4241 14.7829 38.8961C14.8359 38.3619 15.0987 37.6496 16.037 36.9235C17.4724 35.8061 18.7796 35.4136 20.3289 35.4662ZM13.3591 14.1734C14.5188 15.1716 15.4947 16.8772 15.9801 19.1834L17.2135 24.9948C17.4361 26.0356 17.1812 26.7329 16.6544 27.3474C16.1289 27.9682 15.2514 28.4573 14.3014 28.6805C13.3514 28.9012 12.3599 28.8423 11.6675 28.5488C10.9647 28.2629 10.5557 27.8566 10.3784 27.0339L7.91925 15.4413C7.68369 14.3038 8.36448 13.115 10.0755 13.0498C11.7892 12.9783 12.5981 13.52 13.3591 14.1734ZM10.5816 10.4049C10.0225 10.3836 9.44909 10.43 8.87831 10.5479C6.35575 11.0445 4.77801 13.5125 5.29831 15.968L7.74581 27.5631C8.09009 29.1946 9.25495 30.3848 10.6178 30.9529C11.4268 31.2864 12.2965 31.4093 13.1715 31.4018C13.3941 32.5731 13.9196 33.6767 14.6961 34.6223C14.5421 34.7414 14.3933 34.8518 14.2431 34.9747C12.9838 36.0669 12.2357 37.3398 12.1076 38.6516C11.9781 39.9596 12.492 41.2011 13.3488 42.1392L29.6594 60.0259C30.5162 60.9665 31.7354 61.724 33.0893 61.645C35.0786 61.5346 36.2926 60.6994 37.5183 59.6196C37.8976 60.5991 38.5098 61.4757 39.2773 62.1955C38.2612 63.0508 37.5779 64.1142 37.2698 65.2391C36.8298 66.8456 37.0679 68.5248 37.7759 69.9544C38.489 71.3866 39.6824 72.6068 41.2549 73.2263C41.6523 73.383 42.0639 73.4934 42.4936 73.5586L44.2732 82.2656C42.3525 85.16 41.2265 88.6012 41.2265 92.2982C41.2342 93.0168 41.8335 93.5999 42.5738 93.5999H77.9247C78.6599 93.5936 79.2591 93.0117 79.2591 92.2982C79.2591 82.9779 72.1807 75.2516 62.9796 73.9524L59.4552 68.3981C62.6223 67.8112 65.8309 67.5441 69.2232 67.5441C77.1158 67.5441 83.9988 68.8559 91.8254 72.8012C93.6788 73.7806 95.6202 73.8458 97.1967 73.225C98.7692 72.6043 99.9548 71.3841 100.663 69.9532C101.371 68.5235 101.621 66.8443 101.18 65.2379C100.735 63.6301 99.5574 62.1278 97.6613 61.2198C88.0836 56.433 78.6392 54.8792 69.2219 54.8792C60.1062 54.8792 50.9802 56.3427 41.7105 60.7771C40.6583 60.1087 39.8623 58.797 39.7561 57.4852C39.6345 56.0355 40.1406 54.7024 41.981 53.8283L41.9862 53.8145H42.0017C47.8869 50.875 55.0857 48.8948 61.1326 48.2565C61.8458 48.1775 62.4476 47.8577 62.9252 47.4928C63.9775 46.6889 64.556 45.2768 64.3204 43.7832C64.1185 42.5091 63.6461 41.097 62.3712 40.3471C60.6395 39.3288 59.0902 39.3865 57.3235 39.5771C53.6232 39.9809 52.3483 40.485 50.0561 41.0469C47.839 41.5886 46.269 42.6533 45.3915 44.0065C44.5217 45.3508 44.3884 46.9121 44.7715 48.259C44.8984 48.6954 45.0951 49.0992 45.3384 49.4592C43.8215 50.0611 42.3046 50.727 40.7877 51.4845C40.424 51.6613 40.0927 51.8569 39.782 52.0726C39.3847 50.2944 38.4062 48.4346 36.7353 46.5974L27.9173 36.931C25.5643 34.3577 23.0029 33.0647 20.5632 32.8678C19.3219 32.7637 18.1415 32.9468 17.0647 33.3331C16.4227 32.6471 16.006 31.8219 15.8506 30.9353C16.943 30.5365 17.9539 29.9095 18.7227 29.009C19.7063 27.8578 20.2189 26.2263 19.8552 24.4831L18.6217 18.6554C18.0406 15.9266 16.8472 13.6994 15.1427 12.2233C13.8652 11.1172 12.2745 10.4701 10.5816 10.4049Z" fill="white"/>
</svg>
