
<svg width="105" height="104" viewBox="0 0 105 104" fill="none" xmlns="http://www.w3.org/2000/svg">
<path d="M38.5816 46.427C38.7444 46.4269 38.9055 46.394 39.0553 46.3303C39.8453 46.0073 40.6921 45.8462 41.5456 45.8566H41.7292C42.0524 45.8638 42.3653 45.7423 42.599 45.5189C42.8326 45.2954 42.968 44.9883 42.9752 44.6651C42.9824 44.3418 42.8609 44.029 42.6375 43.7953C42.414 43.5616 42.1069 43.4263 41.7836 43.4191H41.5456C40.366 43.408 39.1963 43.6346 38.1063 44.0853C37.847 44.1947 37.6336 44.3905 37.5022 44.6394C37.3709 44.8882 37.3297 45.1749 37.3857 45.4507C37.4417 45.7264 37.5914 45.9743 37.8093 46.1523C38.0273 46.3303 38.3002 46.4273 38.5816 46.427Z" fill="white"/>
<path d="M44.5164 46.4004C45.4204 46.7299 46.2695 47.1939 47.0351 47.7767C47.2925 47.9724 47.6171 48.0578 47.9375 48.0141C48.2578 47.9705 48.5477 47.8013 48.7434 47.5439C48.9391 47.2865 49.0245 46.962 48.9808 46.6416C48.9372 46.3212 48.768 46.0313 48.5106 45.8357C47.5499 45.1049 46.4843 44.5234 45.35 44.1107C45.1988 44.0519 45.0374 44.0239 44.8752 44.0283C44.713 44.0327 44.5533 44.0694 44.4055 44.1363C44.2577 44.2033 44.1247 44.299 44.0144 44.418C43.9041 44.537 43.8187 44.6768 43.7631 44.8293C43.7076 44.9817 43.683 45.1437 43.6909 45.3058C43.6988 45.4678 43.7389 45.6267 43.809 45.773C43.8791 45.9193 43.9777 46.0502 44.099 46.1579C44.2204 46.2657 44.362 46.3481 44.5156 46.4004H44.5164Z" fill="white"/>
<path d="M49.0108 49.8322C49.5479 50.6132 49.9485 51.4797 50.1954 52.3948C50.2644 52.6541 50.4171 52.8833 50.6296 53.0469C50.8422 53.2106 51.1028 53.2995 51.3711 53.2999C51.478 53.2982 51.5842 53.2827 51.6872 53.2536C51.8417 53.2119 51.9866 53.1401 52.1134 53.0424C52.2402 52.9447 52.3466 52.8229 52.4263 52.6841C52.5061 52.5452 52.5577 52.3921 52.5782 52.2333C52.5988 52.0745 52.5878 51.9132 52.546 51.7586C52.2269 50.5777 51.7096 49.4595 51.016 48.4518C50.8329 48.1854 50.5514 48.0028 50.2335 47.9439C49.9157 47.8851 49.5875 47.955 49.3212 48.1381C49.0548 48.3213 48.8721 48.6028 48.8133 48.9206C48.7545 49.2385 48.8244 49.5667 49.0075 49.833L49.0108 49.8322Z" fill="white"/>
<path d="M34.6246 51.5124C34.9433 51.5655 35.27 51.4899 35.533 51.3022C35.796 51.1145 35.9736 50.83 36.027 50.5114L36.0489 50.383C36.1849 49.4932 36.525 48.647 37.0426 47.9105C37.2225 47.649 37.2933 47.3276 37.2399 47.0147C37.1865 46.7018 37.0131 46.4221 36.7567 46.235C36.5002 46.048 36.1808 45.9684 35.8666 46.0132C35.5523 46.058 35.2679 46.2236 35.0739 46.4749C34.3363 47.5105 33.8488 48.7031 33.6496 49.9589L33.6244 50.1075C33.5978 50.2655 33.6025 50.4271 33.6383 50.5832C33.6742 50.7393 33.7405 50.8868 33.8333 51.0173C33.9262 51.1477 34.0439 51.2586 34.1797 51.3436C34.3155 51.4285 34.4667 51.4859 34.6246 51.5124Z" fill="white"/>
<path d="M50.474 66.6373C50.0552 66.8246 49.6071 66.9376 49.1496 66.9713C48.7 67.0086 48.2396 67.0384 47.7684 67.0606C47.4451 67.0683 47.1382 67.204 46.915 67.438C46.6919 67.672 46.5708 67.985 46.5785 68.3082C46.5861 68.6315 46.7219 68.9384 46.9558 69.1616C47.1898 69.3847 47.5028 69.5058 47.8261 69.4981H47.8846C48.384 69.4748 48.8734 69.4434 49.3527 69.4039C50.1102 69.345 50.8513 69.1525 51.5416 68.8351C51.6857 68.7651 51.8145 68.6673 51.9208 68.5475C52.027 68.4277 52.1087 68.2881 52.161 68.1367C52.2133 67.9853 52.2353 67.8251 52.2257 67.6652C52.2161 67.5053 52.1751 67.3489 52.1051 67.2048C52.035 67.0608 51.9373 66.932 51.8175 66.8257C51.6976 66.7194 51.558 66.6378 51.4066 66.5855C51.2553 66.5331 51.0951 66.5112 50.9352 66.5207C50.7753 66.5303 50.6189 66.5713 50.4748 66.6414L50.474 66.6373Z" fill="white"/>
<path d="M99.0852 45.9939C97.8665 43.9164 95.5322 42.9877 92.8355 43.4971C90.2308 44.0579 87.9483 45.6139 86.4744 47.8334C86.3083 47.2473 86.0866 46.6784 85.8122 46.1345C84.6317 43.8904 81.64 42.9113 78.1894 43.6434C75.2465 44.2528 72.6524 45.9744 70.9475 48.4493C70.4236 46.9633 69.4468 45.6791 68.1547 44.7775C66.8626 43.8759 65.3202 43.4022 63.7447 43.4232C59.2394 43.3175 53.7193 46.2929 52.3584 52.1169C50.9714 58.0482 50.9828 65.3046 51.9172 67.3537C52.6809 69.0283 54.9649 69.3427 55.6457 69.3988C56.8198 69.4955 58.0629 69.5434 59.3247 69.5434C62.172 69.5547 65.0144 69.3078 67.817 68.8057C68.9967 68.6005 70.0514 67.9472 70.7607 66.9824C71.6741 67.3541 72.6444 67.5668 73.6296 67.6113C74.0497 67.643 74.5169 67.6592 75.0182 67.6592C78.7102 67.6592 84.2279 66.7614 86.2615 64.6384C86.8975 64.878 87.5663 65.0194 88.2449 65.0576C88.5398 65.0812 88.8615 65.0925 89.2052 65.0925C92.699 65.0925 98.3751 63.8941 99.3964 61.4363C100.21 59.4839 101.114 49.4625 99.0852 45.9939ZM69.325 63.9835C69.3413 64.5559 69.1524 65.1153 68.7924 65.5606C68.4325 66.006 67.9251 66.308 67.362 66.412C63.5636 67.084 59.6953 67.2718 55.8497 66.971C55.2214 66.9791 54.6121 66.7559 54.1377 66.3438C53.534 65.0202 53.374 58.4918 54.7341 52.6735C55.2447 50.7409 56.3737 49.0284 57.9488 47.7975C59.5238 46.5667 61.4584 45.885 63.4571 45.8566C63.5302 45.8566 63.6034 45.8566 63.6757 45.8566C64.9587 45.8225 66.2087 46.2661 67.1831 47.1014C68.1576 47.9368 68.7871 49.1042 68.9496 50.3774C69.8474 55.583 69.4639 62.1074 69.325 63.9835ZM84.6309 62.8062C84.4017 63.3384 82.5184 64.3402 79.0522 64.8992C75.1717 65.5264 72.4369 65.1657 71.6739 64.7367C71.7056 64.5482 71.7422 64.3621 71.7552 64.1679C72.0164 60.5919 72.0219 57.0018 71.7714 53.425C71.7698 53.3999 71.7698 53.3746 71.7714 53.3495C72.0924 49.2447 75.4683 46.717 78.6955 46.0321C81.0136 45.5405 83.0067 46.0394 83.6559 47.2744C85.3849 50.5553 85.4539 60.8919 84.6309 62.8062ZM97.1482 60.5044C97.0304 60.7871 95.9766 61.5606 93.4692 62.1497C90.463 62.8541 88.036 62.7184 87.2374 62.4178C87.6874 59.0602 87.7106 55.6591 87.3064 52.2957C87.3003 52.2536 87.3003 52.2109 87.3064 52.1689C87.5812 50.6531 88.2943 49.251 89.3574 48.1361C90.4205 47.0211 91.787 46.2422 93.288 45.8956C94.0737 45.7429 96.0099 45.5755 96.9776 47.2281C98.4182 49.681 97.8576 58.7916 97.1482 60.5003V60.5044Z" fill="white"/>
<path d="M99.0561 52.9172C98.8415 52.9171 98.6307 52.8602 98.4451 52.7524C98.2595 52.6446 98.1056 52.4897 97.9991 52.3034C97.8925 52.117 97.8371 51.9058 97.8384 51.6912C97.8397 51.4766 97.8976 51.2661 98.0064 51.081C102.333 43.7197 102.176 34.5539 97.6399 29.7626C92.3546 24.1775 73.6094 27.4348 59.2704 33.6529C57.1317 34.5771 54.8265 35.0539 52.4966 35.0539C50.1668 35.0539 47.8615 34.5771 45.7228 33.6529C31.3838 27.434 12.6386 24.1791 7.35331 29.7626C2.81713 34.5564 2.66031 43.7197 6.98688 51.081C7.13651 51.3586 7.17272 51.6834 7.08789 51.9871C7.00306 52.2908 6.8038 52.5499 6.53199 52.7098C6.26017 52.8696 5.93696 52.918 5.63028 52.8445C5.32359 52.7711 5.0573 52.5816 4.88738 52.316C-0.0469359 43.9188 0.246377 33.7293 5.58613 28.0864C12.6736 20.5984 34.5631 26.1535 46.6986 31.4177C48.5314 32.2094 50.5067 32.6179 52.5031 32.6179C54.4996 32.6179 56.4749 32.2094 58.3076 31.4177C70.4391 26.1535 92.3278 20.5976 99.4201 28.0864C104.76 33.7293 105.053 43.9188 100.117 52.316C100.009 52.5006 99.8536 52.6533 99.6673 52.7589C99.481 52.8644 99.2702 52.9191 99.0561 52.9172Z" fill="white"/>
<path d="M74.4594 86.4262C74.1323 86.4263 73.8112 86.3383 73.53 86.1713C73.2487 86.0042 73.0177 85.7645 72.8612 85.4772L71.7302 83.4094C71.4133 82.829 70.9361 82.3521 70.3555 82.0355L68.2869 80.9037C67.9997 80.7469 67.76 80.5157 67.593 80.2344C67.426 79.953 67.3379 79.6319 67.3379 79.3047C67.3379 78.9775 67.426 78.6563 67.593 78.375C67.76 78.0936 67.9997 77.8624 68.2869 77.7057L70.3547 76.5739C70.935 76.2572 71.412 75.7802 71.7286 75.1999L72.8604 73.1313C73.0171 72.8443 73.2482 72.6048 73.5295 72.438C73.8107 72.2711 74.1316 72.1831 74.4586 72.1831C74.7865 72.1822 75.1086 72.2699 75.3909 72.4367C75.6732 72.6036 75.9052 72.8436 76.0625 73.1313L77.1943 75.1999C77.511 75.7802 77.9879 76.2572 78.5682 76.5739L80.6369 77.7057C80.9239 77.8625 81.1634 78.0937 81.3302 78.3749C81.4971 78.6562 81.5851 78.9772 81.5851 79.3043C81.5851 79.6313 81.4971 79.9523 81.3302 80.2336C81.1634 80.5149 80.9239 80.7461 80.6369 80.9029L78.5682 82.0355C77.9878 82.3519 77.5107 82.8289 77.1943 83.4094L76.0625 85.4748C75.9057 85.763 75.674 86.0035 75.3918 86.171C75.1097 86.3385 74.7875 86.4266 74.4594 86.4262ZM70.4424 79.3039L71.5247 79.8962C72.5141 80.437 73.3274 81.2506 73.8679 82.2402L74.4594 83.3225L75.0517 82.2402C75.5917 81.2502 76.4052 80.4365 77.395 79.8962L78.4764 79.3047L77.395 78.7132C76.4051 78.1726 75.5915 77.359 75.0509 76.3691L74.4594 75.2869L73.8687 76.3691C73.3288 77.3589 72.5157 78.1725 71.5263 78.7132L70.4424 79.3039Z" fill="white"/>
<path d="M63.2456 24.5375C62.9514 24.5375 62.6625 24.4584 62.4094 24.3085C62.1562 24.1585 61.948 23.9432 61.8067 23.6852L61.0169 22.2406C60.8293 21.8976 60.5473 21.6157 60.2044 21.4281L58.7606 20.6375C58.502 20.4964 58.2863 20.2883 58.1359 20.035C57.9856 19.7818 57.9062 19.4927 57.9062 19.1981C57.9062 18.9036 57.9856 18.6145 58.1359 18.3612C58.2863 18.108 58.502 17.8999 58.7606 17.7588L60.2028 16.9699C60.5458 16.7823 60.8277 16.5003 61.0153 16.1574L61.805 14.7119C61.9457 14.4527 62.1536 14.2362 62.4069 14.0852C62.6601 13.9341 62.9494 13.8541 63.2443 13.8535C63.5392 13.8529 63.8288 13.9318 64.0827 14.0819C64.3365 14.2319 64.5453 14.4476 64.687 14.7062L65.4767 16.1517C65.6642 16.4947 65.9462 16.7767 66.2892 16.9642L67.7347 17.7547C67.9926 17.896 68.2078 18.104 68.3578 18.3571C68.5077 18.6101 68.5868 18.8988 68.5868 19.1929C68.5868 19.487 68.5077 19.7757 68.3578 20.0287C68.2078 20.2817 67.9926 20.4897 67.7347 20.631L66.2892 21.4224C65.9464 21.6101 65.6645 21.8921 65.4767 22.2349L64.687 23.6819C64.546 23.9411 64.3376 24.1573 64.0839 24.3079C63.8303 24.4585 63.5406 24.5378 63.2456 24.5375ZM61.2087 19.1994L61.3712 19.2887C62.1233 19.7003 62.7417 20.319 63.153 21.0714L63.2432 21.2339L63.3333 21.0714C63.7443 20.3193 64.3624 19.7009 65.1144 19.2895L65.2768 19.1994L65.1144 19.1084C64.3615 18.6977 63.7429 18.0788 63.3325 17.3257L63.2423 17.1632L63.1522 17.3257C62.7414 18.0787 62.1225 18.6976 61.3695 19.1084L61.2087 19.1994Z" fill="white"/>
<path d="M15.7676 79.5894C15.4728 79.5892 15.1834 79.5093 14.9302 79.3583C14.6769 79.2073 14.4691 78.9907 14.3287 78.7314L13.5389 77.2892C13.3519 76.9458 13.0698 76.6637 12.7264 76.4767L11.2818 75.6854C11.0238 75.5441 10.8086 75.3361 10.6587 75.083C10.5088 74.83 10.4297 74.5413 10.4297 74.2472C10.4297 73.9531 10.5088 73.6644 10.6587 73.4114C10.8086 73.1584 11.0238 72.9504 11.2818 72.8091L12.7272 72.0185C13.0699 71.8305 13.3517 71.5487 13.5397 71.206L14.3295 69.7614C14.4708 69.5033 14.679 69.2879 14.9321 69.1379C15.1853 68.9879 15.4742 68.9087 15.7684 68.9087C16.0627 68.9087 16.3516 68.9879 16.6047 69.1379C16.8579 69.2879 17.0661 69.5033 17.2074 69.7614L17.9971 71.2069C18.1854 71.5493 18.4672 71.831 18.8096 72.0194L20.2534 72.8075C20.5118 72.9487 20.7273 73.1569 20.8775 73.4101C21.0277 73.6634 21.1069 73.9524 21.1069 74.2468C21.1069 74.5412 21.0277 74.8302 20.8775 75.0835C20.7273 75.3368 20.5118 75.5449 20.2534 75.6862L18.8104 76.4759C18.467 76.6629 18.1849 76.945 17.9979 77.2884L17.2074 78.7322C17.0667 78.9914 16.8587 79.2079 16.6053 79.3587C16.3519 79.5096 16.0625 79.5893 15.7676 79.5894ZM13.7307 74.2505L13.8932 74.3415C14.6457 74.7522 15.2643 75.3707 15.675 76.1233L15.7652 76.2858L15.8554 76.1233C16.2682 75.371 16.8887 74.7533 17.6429 74.3439L17.8054 74.2537L17.6429 74.1635C16.8878 73.7528 16.2671 73.133 15.8554 72.3785L15.7652 72.216L15.675 72.3785C15.2644 73.1309 14.6458 73.7492 13.8932 74.1595L13.7307 74.2505Z" fill="white"/>
<path d="M44.9593 62.5835C44.4051 60.3222 43.2407 58.2565 41.5931 56.6116C39.9454 54.9667 37.8778 53.8057 35.6156 53.2552C35.5623 53.0219 35.441 52.8095 35.2671 52.6451C35.0931 52.4807 34.8743 52.3716 34.6383 52.3316C34.4024 52.2916 34.1598 52.3225 33.9414 52.4204C33.723 52.5182 33.5385 52.6787 33.4113 52.8815C33.0087 52.8479 32.6045 52.8357 32.2006 52.8449C30.1433 52.8194 28.1474 53.5458 26.5878 54.8878C25.0281 56.2297 24.0121 58.0949 23.7303 60.133C23.4996 61.4704 23.3436 62.8768 23.2355 64.2825C21.5016 63.7657 20.5291 63.1718 20.3698 62.8021C19.5468 60.8919 19.6158 50.5553 21.3448 47.2695C21.8153 46.3758 22.9845 45.855 24.5534 45.8428H24.6046C26.169 45.874 27.7 46.3016 29.0542 47.0855C30.4084 47.8695 31.5416 48.9842 32.3477 50.3253C32.4231 50.4682 32.5262 50.5946 32.6509 50.6972C32.7757 50.7998 32.9196 50.8766 33.0742 50.9232C33.2289 50.9697 33.3913 50.985 33.5519 50.9683C33.7126 50.9515 33.8683 50.9029 34.01 50.8255C34.1517 50.748 34.2766 50.6431 34.3775 50.5169C34.4783 50.3907 34.553 50.2458 34.5973 50.0904C34.6417 49.9351 34.6546 49.7725 34.6356 49.6121C34.6165 49.4517 34.5657 49.2967 34.4862 49.1561C33.4709 47.4292 32.0279 45.9929 30.2963 44.9857C28.5646 43.9784 26.6028 43.4341 24.5997 43.4053H24.5331C22.0371 43.424 20.0879 44.4193 19.186 46.1345C18.9125 46.6785 18.6916 47.2474 18.5263 47.8334C17.0524 45.6139 14.7698 44.0579 12.1652 43.4971C9.46608 42.9803 7.12771 43.9163 5.91546 45.9939C3.88421 49.4625 4.79096 59.4814 5.60183 61.4314C6.62314 63.8925 12.2993 65.0877 15.793 65.0877C16.1359 65.0877 16.4585 65.0763 16.7534 65.0527C17.4359 65.0145 18.1084 64.8715 18.7473 64.6286C19.9894 65.7034 21.4862 66.4419 23.095 66.7736C22.9897 69.9162 23.0491 73.0622 23.2729 76.1986C23.2884 77.4225 23.7296 78.6027 24.5205 79.5368C25.3115 80.4708 26.403 81.1004 27.6076 81.3173C30.777 81.8852 33.9915 82.1642 37.2113 82.151C38.6389 82.151 40.0461 82.0973 41.3746 81.9885C42.1253 81.9267 44.64 81.5822 45.4696 79.763C46.5201 77.4669 46.5258 69.2875 44.9593 62.5835ZM11.5315 62.1456C9.02408 61.5573 7.97027 60.783 7.85246 60.5003C7.14314 58.794 6.58252 49.681 8.01902 47.224C8.98508 45.5706 10.9213 45.7388 11.7086 45.8915C13.2093 46.238 14.5756 47.0165 15.6387 48.131C16.7017 49.2455 17.415 50.647 17.6902 52.1624C17.6977 52.2042 17.699 52.2469 17.6943 52.2891C17.29 55.6529 17.3132 59.0542 17.7633 62.4121C16.9646 62.7111 14.5345 62.8508 11.5315 62.1456ZM43.2523 78.758C42.6919 79.2893 41.9452 79.5791 41.1731 79.5648C36.7944 79.906 32.3902 79.6925 28.065 78.9294C27.3903 78.8053 26.7822 78.4443 26.3502 77.9114C25.9181 77.3785 25.6907 76.7089 25.7088 76.0231C25.5463 73.8903 25.1148 66.4713 26.1361 60.5474C26.3253 59.0644 27.0585 57.7045 28.1934 56.7314C29.3283 55.7583 30.7842 55.2414 32.2786 55.2808C36.4224 55.1784 41.4038 58.066 42.5901 63.1393C44.1371 69.7741 43.9453 77.2378 43.2523 78.758Z" fill="white"/>
</svg>