
<svg width="105" height="104" viewBox="0 0 105 104" fill="none" xmlns="http://www.w3.org/2000/svg">
<path d="M77.5918 19.2123C77.2247 19.2124 76.8644 19.1136 76.5487 18.9263C76.233 18.739 75.9736 18.4701 75.7978 18.1479L74.2491 15.3164C73.7741 14.4463 73.0589 13.7313 72.1886 13.2567L69.3579 11.7081C69.0356 11.5322 68.7666 11.2727 68.5792 10.957C68.3919 10.6412 68.293 10.2808 68.293 9.91366C68.293 9.54649 68.3919 9.1861 68.5792 8.87035C68.7666 8.5546 69.0356 8.29515 69.3579 8.11925L72.1878 6.57063C73.0581 6.09598 73.7733 5.38097 74.2483 4.51094L75.797 1.67938C75.9732 1.35753 76.2328 1.08901 76.5485 0.901958C76.8642 0.714907 77.2244 0.616211 77.5914 0.616211C77.9583 0.616211 78.3185 0.714907 78.6342 0.901958C78.9499 1.08901 79.2095 1.35753 79.3858 1.67938L80.9376 4.51094C81.4125 5.38053 82.1271 6.09543 82.9965 6.57063L85.8289 8.11925C86.151 8.29533 86.4197 8.55485 86.6069 8.87058C86.7941 9.1863 86.8929 9.5466 86.8929 9.91366C86.8929 10.2807 86.7941 10.641 86.6069 10.9567C86.4197 11.2725 86.151 11.532 85.8289 11.7081L82.9973 13.2567C82.1275 13.7315 81.4125 14.4465 80.9376 15.3164L79.389 18.1479C79.2127 18.4704 78.9527 18.7395 78.6365 18.9268C78.3202 19.1141 77.9593 19.2127 77.5918 19.2123ZM71.1568 9.91244L73.3586 11.1166C74.6381 11.8153 75.6896 12.8674 76.3876 14.1472L77.5918 16.3491L78.7959 14.1472C79.4947 12.8683 80.546 11.817 81.8249 11.1182L84.0251 9.91244L81.8225 8.7075C80.5438 8.00881 79.4925 6.95781 78.7935 5.67932L77.5901 3.47744L76.3876 5.68094C75.6891 6.95979 74.6377 8.01092 73.3586 8.70913L71.1568 9.91244Z" fill="white"/>
<path d="M90.8774 40.2725C90.5418 40.2721 90.2126 40.1813 89.9243 40.0097C89.6359 39.8382 89.399 39.5922 89.2386 39.2975L88.0198 37.0672C87.6693 36.425 87.1416 35.8971 86.4996 35.5462L84.2693 34.3274C83.9745 34.1667 83.7284 33.9295 83.5569 33.6408C83.3854 33.352 83.2949 33.0224 83.2949 32.6866C83.2949 32.3508 83.3854 32.0211 83.5569 31.7324C83.7284 31.4437 83.9745 31.2064 84.2693 31.0457L86.5004 29.827C87.142 29.4762 87.6694 28.9485 88.0198 28.3068L89.2386 26.0773C89.399 25.7826 89.6359 25.5366 89.9243 25.365C90.2126 25.1935 90.5418 25.1027 90.8774 25.1023C91.2132 25.1024 91.5428 25.193 91.8314 25.3646C92.1201 25.5362 92.3572 25.7824 92.5178 26.0773L93.7366 28.3084C94.0867 28.9502 94.6141 29.4777 95.2559 29.8278L97.4871 31.0465C97.7817 31.2073 98.0276 31.4445 98.199 31.7332C98.3703 32.0218 98.4607 32.3513 98.4607 32.687C98.4607 33.0227 98.3703 33.3521 98.199 33.6408C98.0276 33.9295 97.7817 34.1666 97.4871 34.3274L95.2559 35.5462C94.6141 35.8975 94.0863 36.4253 93.7349 37.0672L92.5162 39.2975C92.3557 39.5922 92.1189 39.8382 91.8305 40.0097C91.5421 40.1813 91.2129 40.2721 90.8774 40.2725ZM86.3461 32.6886L87.6664 33.4109C88.7173 33.9851 89.5813 34.8489 90.1559 35.8996L90.8774 37.2199L91.5989 35.8996C92.1736 34.8488 93.038 33.985 94.0892 33.4109L95.4095 32.6886L94.0892 31.9663C93.0381 31.3924 92.174 30.5285 91.5997 29.4776L90.8774 28.1573L90.1559 29.4776C89.5816 30.5285 88.7175 31.3924 87.6664 31.9663L86.3461 32.6886Z" fill="white"/>
<path d="M63.8374 44.4186C63.5144 44.4187 63.1973 44.3318 62.9195 44.1669C62.6416 44.0021 62.4134 43.7654 62.2587 43.4817L61.1708 41.4936C60.8712 40.9445 60.4199 40.4932 59.8708 40.1936L57.8818 39.1048C57.5984 38.95 57.3618 38.7217 57.197 38.4439C57.0323 38.1661 56.9453 37.8491 56.9453 37.5261C56.9453 37.2031 57.0323 36.8861 57.197 36.6083C57.3618 36.3306 57.5984 36.1023 57.8818 35.9474L59.8676 34.8562C60.4165 34.5564 60.8677 34.1052 61.1676 33.5562L62.2555 31.5673C62.4102 31.2838 62.6384 31.0472 62.9161 30.8824C63.1939 30.7176 63.5108 30.6306 63.8338 30.6306C64.1567 30.6306 64.4737 30.7176 64.7514 30.8824C65.0291 31.0472 65.2573 31.2838 65.4121 31.5673L66.5032 33.5562C66.8031 34.1052 67.2543 34.5564 67.8032 34.8562L69.7914 35.9442C70.0749 36.099 70.3114 36.3273 70.4762 36.6051C70.641 36.8829 70.7279 37.1999 70.7279 37.5229C70.7279 37.8458 70.641 38.1629 70.4762 38.4407C70.3114 38.7184 70.0749 38.9467 69.7914 39.1016L67.8041 40.1887C67.2551 40.4885 66.8039 40.9397 66.5041 41.4887L65.4186 43.4826C65.2637 43.7664 65.035 44.0033 64.7567 44.168C64.4784 44.3327 64.1608 44.4193 63.8374 44.4186ZM60.0723 37.5253L61.0376 38.0526C61.9981 38.5774 62.7878 39.367 63.3126 40.3276L63.8399 41.2921L64.3623 40.3244C64.8866 39.3634 65.6764 38.5737 66.6373 38.0494L67.6017 37.5221L66.6365 36.9939C65.6758 36.4693 64.8862 35.6796 64.3615 34.7189L63.8334 33.7545L63.3069 34.7189C62.7819 35.6793 61.9923 36.4689 61.0319 36.9939L60.0723 37.5253Z" fill="white"/>
<path d="M77.0433 30.2998C71.6564 21.0584 59.087 20.1281 50.0447 24.5676C48.456 25.3409 46.7175 25.7574 44.9509 25.788C43.1842 25.8186 41.4323 25.4625 39.8178 24.7447C39.691 24.6878 38.673 24.2044 38.2878 24.0395C29.3609 20.2207 17.6024 21.4452 12.4414 30.2998C5.41735 42.35 12.1993 59.5563 19.1283 71.8738C21.6925 76.4335 22.9235 82.472 24.009 87.7988C25.6275 95.741 27.1615 103.271 32.9928 103.271C33.425 103.269 33.8563 103.231 34.2822 103.157C38.5966 102.43 39.4253 94.5133 40.3849 85.3458C41.0837 78.6663 42.0416 69.5192 44.7432 69.5192C47.4447 69.5192 48.3994 78.6663 49.1006 85.3458C50.0593 94.5133 50.8881 102.43 55.2025 103.157C62.1087 104.319 63.7435 96.2967 65.4757 87.8012C66.5612 82.4729 67.7913 76.4343 70.3564 71.8762C77.2805 59.5563 84.0673 42.35 77.0433 30.2998ZM68.2317 70.6794C65.4798 75.5723 64.2082 81.8107 63.087 87.3137C61.2913 96.1261 59.9718 101.493 55.6079 100.755C53.1192 100.336 52.1954 91.5257 51.5251 85.0932C50.5143 75.4244 49.6409 67.0825 44.7432 67.0825C39.8454 67.0825 38.9744 75.4285 37.9604 85.0932C37.2877 91.5257 36.3655 100.336 33.8768 100.755C29.5202 101.486 28.1933 96.1237 26.3969 87.3129C25.2757 81.809 24.0049 75.5715 21.2522 70.6794C14.6368 58.9193 8.10429 42.5807 14.5474 31.525C17.405 26.6224 22.8495 24.4807 28.4501 24.4807C31.8035 24.4839 35.1152 25.2245 38.1505 26.65C38.222 26.685 39.0443 27.101 39.2385 27.2107C40.355 27.8743 41.3661 28.7011 42.2382 29.6636C43.4716 30.923 44.6367 32.1125 47.1352 32.357C47.1758 32.3611 47.2164 32.3627 47.2562 32.3627C47.5678 32.3606 47.8668 32.2391 48.0917 32.0233C48.3165 31.8076 48.4502 31.5139 48.4651 31.2026C48.4801 30.8913 48.3753 30.5861 48.1722 30.3498C47.9691 30.1134 47.6832 29.9638 47.3732 29.9317C46.7559 29.8717 46.1573 29.6867 45.6138 29.3879C45.0703 29.0891 44.5932 28.6828 44.2118 28.1938C46.5974 28.2902 48.9699 27.7953 51.118 26.7532C58.9822 22.8906 70.3263 23.617 74.9357 31.525C81.3804 42.5807 74.8471 58.9193 68.2317 70.6794Z" fill="white"/>
</svg>