<?xml version="1.0" encoding="utf-8"?>
<!-- Generator: Adobe Illustrator 26.0.2, SVG Export Plug-In . SVG Version: 6.00 Build 0)  -->
<svg version="1.1" id="Layer_1" xmlns="http://www.w3.org/2000/svg" xmlns:xlink="http://www.w3.org/1999/xlink" x="0px" y="0px"
	 viewBox="0 0 50 50" style="enable-background:new 0 0 50 50;" xml:space="preserve">
<style type="text/css">
	.st0{fill:#665D4E;}
</style>
<g>
	<g>
		<path class="st0" d="M3.1,5.2c3.2,0,3.2-5,0-5C-0.1,0.2-0.1,5.2,3.1,5.2L3.1,5.2z"/>
	</g>
</g>
<g>
	<g>
		<path class="st0" d="M3.1,15.9c3.2,0,3.2-5,0-5C-0.1,10.9-0.1,15.9,3.1,15.9L3.1,15.9z"/>
	</g>
</g>
<g>
	<g>
		<path class="st0" d="M3.1,27.3c3.2,0,3.2-5,0-5C-0.1,22.3-0.1,27.3,3.1,27.3L3.1,27.3z"/>
	</g>
</g>
<g>
	<g>
		<path class="st0" d="M3.1,49.8c3.2,0,3.2-5,0-5C-0.1,44.8-0.1,49.8,3.1,49.8L3.1,49.8z"/>
	</g>
</g>
<g>
	<g>
		<path class="st0" d="M3.1,38.8c3.2,0,3.2-5,0-5C-0.1,33.8-0.1,38.8,3.1,38.8L3.1,38.8z"/>
	</g>
</g>
<g>
	<g>
		<path class="st0" d="M13.9,5.2c3.2,0,3.2-5,0-5C10.7,0.2,10.6,5.2,13.9,5.2L13.9,5.2z"/>
	</g>
</g>
<g>
	<g>
		<path class="st0" d="M13.9,15.8c3.2,0,3.2-5,0-5C10.7,10.8,10.6,15.8,13.9,15.8L13.9,15.8z"/>
	</g>
</g>
<g>
	<g>
		<path class="st0" d="M13.9,27.3c3.2,0,3.2-5,0-5C10.7,22.3,10.6,27.3,13.9,27.3L13.9,27.3z"/>
	</g>
</g>
<g>
	<g>
		<path class="st0" d="M13.9,49.8c3.2,0,3.2-5,0-5C10.7,44.8,10.6,49.8,13.9,49.8L13.9,49.8z"/>
	</g>
</g>
<g>
	<g>
		<path class="st0" d="M13.9,38.8c3.2,0,3.2-5,0-5C10.7,33.8,10.6,38.8,13.9,38.8L13.9,38.8z"/>
	</g>
</g>
<g>
	<g>
		<path class="st0" d="M24.6,5.2c3.2,0,3.2-5,0-5C21.4,0.2,21.4,5.2,24.6,5.2L24.6,5.2z"/>
	</g>
</g>
<g>
	<g>
		<path class="st0" d="M24.6,15.8c3.2,0,3.2-5,0-5C21.4,10.8,21.4,15.8,24.6,15.8L24.6,15.8z"/>
	</g>
</g>
<g>
	<g>
		<path class="st0" d="M24.6,27.3c3.2,0,3.2-5,0-5C21.4,22.3,21.4,27.3,24.6,27.3L24.6,27.3z"/>
	</g>
</g>
<g>
	<g>
		<path class="st0" d="M24.6,49.8c3.2,0,3.2-5,0-5C21.4,44.8,21.4,49.8,24.6,49.8L24.6,49.8z"/>
	</g>
</g>
<g>
	<g>
		<path class="st0" d="M24.6,38.8c3.2,0,3.2-5,0-5C21.4,33.8,21.4,38.8,24.6,38.8L24.6,38.8z"/>
	</g>
</g>
<g>
	<g>
		<path class="st0" d="M46.4,5.2c3.2,0,3.2-5,0-5C43.2,0.2,43.2,5.2,46.4,5.2L46.4,5.2z"/>
	</g>
</g>
<g>
	<g>
		<path class="st0" d="M46.4,15.8c3.2,0,3.2-5,0-5C43.2,10.8,43.2,15.8,46.4,15.8L46.4,15.8z"/>
	</g>
</g>
<g>
	<g>
		<path class="st0" d="M46.4,27.3c3.2,0,3.2-5,0-5C43.2,22.3,43.2,27.3,46.4,27.3L46.4,27.3z"/>
	</g>
</g>
<g>
	<g>
		<path class="st0" d="M46.4,49.8c3.2,0,3.2-5,0-5C43.2,44.8,43.2,49.8,46.4,49.8L46.4,49.8z"/>
	</g>
</g>
<g>
	<g>
		<path class="st0" d="M46.4,38.8c3.2,0,3.2-5,0-5C43.2,33.8,43.2,38.8,46.4,38.8L46.4,38.8z"/>
	</g>
</g>
<g>
	<g>
		<path class="st0" d="M35.5,5.2c3.2,0,3.2-5,0-5C32.3,0.2,32.3,5.2,35.5,5.2L35.5,5.2z"/>
	</g>
</g>
<g>
	<g>
		<path class="st0" d="M35.5,15.8c3.2,0,3.2-5,0-5C32.3,10.8,32.3,15.8,35.5,15.8L35.5,15.8z"/>
	</g>
</g>
<g>
	<g>
		<path class="st0" d="M35.5,27.3c3.2,0,3.2-5,0-5C32.3,22.3,32.3,27.3,35.5,27.3L35.5,27.3z"/>
	</g>
</g>
<g>
	<g>
		<path class="st0" d="M35.5,49.8c3.2,0,3.2-5,0-5C32.3,44.8,32.3,49.8,35.5,49.8L35.5,49.8z"/>
	</g>
</g>
<g>
	<g>
		<path class="st0" d="M35.5,38.8c3.2,0,3.2-5,0-5C32.3,33.8,32.3,38.8,35.5,38.8L35.5,38.8z"/>
	</g>
</g>
</svg>
